<?xml version="1.0" encoding="iso-8859-1"?>
<!-- Uploaded to: SVG Repo, www.svgrepo.com, Generator: SVG Repo Mixer Tools -->
<svg height="800px" width="800px" version="1.1" id="Layer_1" xmlns="http://www.w3.org/2000/svg" xmlns:xlink="http://www.w3.org/1999/xlink" 
	 viewBox="0 0 512 512" xml:space="preserve">
<path style={{fill: "#FAF9F9" }} d="M142.826,327.331l-65.083,65.083c-15.394-15.395-40.358-15.395-55.752,0
	c-15.404,15.404-15.404,40.358,0,55.763c8.376,8.376,19.573,12.025,30.529,11.293c-0.731,10.956,2.917,22.154,11.293,30.53
	c15.404,15.404,40.359,15.404,55.764,0c15.394-15.394,15.394-40.359,0-55.753l65.073-65.082"/>
<path style={{fill: "#CE4500" }} d="M184.681,369.19c63.336,40.022,199.977-18.464,264.731-83.208
	c73.247-73.257,64.693-164.706,2.997-226.402c-61.698-61.697-153.146-70.26-226.404,2.997
	c-64.744,64.753-123.23,201.394-83.208,264.721L184.681,369.19z"/>
<path d="M511.96,168.263c-0.732-41.945-19.259-83.167-52.164-116.073C426.889,19.285,385.668,0.758,343.725,0.023
	c-44.964-0.785-88.229,18.288-125.108,55.165c-33.935,33.938-65.095,85.081-83.355,136.804
	c-19.33,54.757-21.144,101.696-5.4,133.525l-52.889,52.889c-8-5.2-17.339-7.989-27.105-7.989c-13.321,0-25.845,5.187-35.265,14.607
	c-19.447,19.447-19.447,51.092,0,70.539c7.558,7.558,17.366,12.385,27.905,13.917c1.532,10.538,6.359,20.347,13.916,27.906
	C65.848,506.81,78.374,512,91.694,512s25.846-5.19,35.27-14.614c16.913-16.913,19.115-43.047,6.609-62.363l52.887-52.895
	c14.273,7.059,31.571,10.599,51.269,10.599c24.226,0,52.062-5.338,82.263-16c51.725-18.26,102.867-49.421,136.807-83.356
	C493.673,256.493,512.747,213.232,511.96,168.263z M112.187,426.856c-4.08,4.08-4.08,10.697,0,14.777
	c11.297,11.297,11.297,29.679,0,40.976c-5.476,5.476-12.754,8.493-20.492,8.493s-15.017-3.017-20.493-8.493
	c-4.153-4.152-6.827-9.337-7.851-15.034c7.609-2.731,16.255-8.09,21.153-17.56c2.651-5.126,0.644-11.43-4.483-14.081
	c-5.126-2.651-11.429-0.645-14.081,4.483c-3.593,6.95-13.01,8.459-14.291,8.635c-8.509,0.527-16.413-2.407-22.27-8.263
	c-11.299-11.299-11.299-29.685,0-40.986c5.472-5.472,12.748-8.486,20.487-8.486s15.016,3.013,20.487,8.486
	c1.959,1.959,4.617,3.06,7.388,3.06c2.771,0,5.428-1.101,7.388-3.06l57.696-57.696l27.047,27.053L112.187,426.856z M442.024,278.593
	c-31.367,31.361-80.791,61.412-128.987,78.427c-51.578,18.209-95.874,19.616-121.825,3.924l-40.167-40.177
	c-15.693-25.948-14.286-70.242,3.923-121.816c17.015-48.196,47.066-97.621,78.427-128.985C297.58,5.779,382.626,4.575,445.02,66.968
	C507.41,129.358,506.205,214.404,442.024,278.593z"/>
<path d="M246.747,98.533l-0.086,0.086c-4.08,4.08-4.08,10.697,0,14.778c2.041,2.041,4.715,3.06,7.388,3.06
	c2.674,0,5.348-1.02,7.388-3.06l0.086-0.086c4.08-4.08,4.08-10.697,0-14.778C257.443,94.452,250.829,94.452,246.747,98.533z"/>
<path d="M354.194,55.703c-26.231-3.058-53.208,3.557-78.011,19.136c-4.887,3.07-6.359,9.519-3.289,14.406
	c3.07,4.887,9.517,6.359,14.406,3.29c41.051-25.786,87.131-21.226,120.255,11.897c2.041,2.041,4.715,3.06,7.388,3.06
	s5.348-1.021,7.388-3.06c4.08-4.08,4.08-10.697,0-14.777C403.072,70.398,379.511,58.657,354.194,55.703z"/>
<path d="M236.884,125.242c-4.66-3.404-11.197-2.39-14.602,2.269c-10.139,13.871-19.705,29.552-27.664,45.346
	c-2.597,5.153-0.523,11.436,4.63,14.033c1.508,0.761,3.113,1.12,4.694,1.12c3.821,0,7.503-2.104,9.339-5.749
	c7.452-14.789,16.397-29.458,25.872-42.418C242.557,135.184,241.542,128.647,236.884,125.242z"/>
</svg>