<?xml version="1.0" encoding="iso-8859-1"?>
<!-- Uploaded to: SVG Repo, www.svgrepo.com, Generator: SVG Repo Mixer Tools -->
<svg height="800px" width="800px" version="1.1" id="Layer_1" xmlns="http://www.w3.org/2000/svg" xmlns:xlink="http://www.w3.org/1999/xlink" 
	 viewBox="0 0 511.999 511.999" xml:space="preserve">
<path style={{fill: "#897249" }} d="M186.436,343.726c55.522,55.52,127.371,82.869,195.082,80.776l-5.866-31.709l47.336,8.76
	c8.749-73.309-18.233-154.076-79.267-215.112c-61.008-61.007-141.726-87.99-215.012-79.277c0.318-31.897-7.415-65.973-22.764-99.145
	c-3.891,14.999-13.37,33.966-27.34,54.883l94.81,94.812l-28.043,3.371L62.896,78.61C41.98,92.579,23.015,102.058,8.015,105.947
	c33.171,15.349,67.246,23.084,99.145,22.766C98.446,201.996,125.429,282.719,186.436,343.726z"/>
<g style="opacity:0.15;">
	<path style={{fill: "#202020" }} d="M381.405,423.89c-59.806-4.64-120.801-31.642-169.324-80.164
		c-55.942-55.942-83.251-128.458-80.686-196.618L114.8,130.513h-7.826c-8.064,72.805,18.953,152.704,79.462,213.212
		c55.522,55.52,127.371,82.869,195.082,80.776L381.405,423.89z"/>
</g>
<path style={{fill: "#A08B6A" }} d="M381.522,424.511l-5.871-31.719l47.354,8.764c4.74-39.749-1.044-81.685-17.051-121.489
	c-29.245,7.774-56.892,23.123-79.83,46.062c-22.939,22.938-38.286,50.586-46.06,79.832
	C313.233,419.297,347.888,425.542,381.522,424.511z"/>
<g>
	<path style={{fill: "#DCE0E2" }} d="M173.415,157.713L29.262,13.559c-4.337-4.337-11.369-4.337-15.707,0
		c-4.339,4.338-4.339,11.369,0,15.708l131.818,131.817L173.415,157.713z"/>
	<path style={{fill: "#DCE0E2" }} d="M446.287,430.583l-30.331-30.332l-38.549-7.136l107.619,107.622c4.338,4.337,11.37,4.337,15.707,0
		c4.339-4.338,4.339-11.373,0-15.708l-36.278-36.281"/>
</g>
<g>
	<path style={{fill: "#202020" }} d="M378.42,354.333c3.979,0,7.719-1.55,10.532-4.364c5.803-5.806,5.802-15.25,0.001-21.052
		c-2.812-2.815-6.552-4.365-10.532-4.365c-3.978,0-7.717,1.549-10.527,4.361c-5.802,5.805-5.804,15.25-0.002,21.058
		C370.704,352.784,374.442,354.333,378.42,354.333z M377.615,338.637c0.208-0.207,0.51-0.332,0.805-0.332
		c0.296,0,0.599,0.124,0.81,0.336c0.442,0.442,0.442,1.163,0.002,1.603c-0.421,0.422-1.2,0.419-1.616,0.005
		C377.172,339.805,377.172,339.082,377.615,338.637z"/>
	<path style={{fill: "#202020" }} d="M289.498,336.413c4.394-0.528,7.528-4.519,7-8.914c-0.529-4.395-4.532-7.546-8.914-7l-73.996,8.898
		c-4.394,0.528-7.528,4.519-7,8.914c0.489,4.07,3.947,7.058,7.947,7.058c0.318,0,0.641-0.02,0.967-0.059L289.498,336.413z"/>
	<path style={{fill: "#202020" }} d="M210.219,291.728c-0.528-4.395-4.517-7.534-8.913-7.001l-17.826,2.142
		c-4.394,0.528-7.529,4.519-7,8.913c0.489,4.071,3.947,7.059,7.947,7.059c0.318,0,0.642-0.02,0.966-0.059l17.826-2.142
		C207.613,300.112,210.748,296.122,210.219,291.728z"/>
	<path style={{fill: "#202020" }} d="M350.882,266.742l-119.989,14.429c-4.394,0.528-7.528,4.519-7,8.914
		c0.489,4.07,3.947,7.058,7.947,7.058c0.318,0,0.642-0.02,0.967-0.059l119.989-14.429c4.394-0.528,7.528-4.519,7-8.914
		C359.267,269.346,355.269,266.219,350.882,266.742z"/>
	<path style={{fill: "#202020" }} d="M352.952,228.418c-0.528-4.394-4.526-7.526-8.914-7l-187.986,22.603
		c-4.394,0.528-7.528,4.519-7,8.914c0.489,4.07,3.947,7.058,7.947,7.058c0.318,0,0.641-0.019,0.967-0.059l187.986-22.603
		C350.347,236.803,353.48,232.812,352.952,228.418z"/>
	<path style={{fill: "#202020" }} d="M216.328,198.699c-0.529-4.395-4.52-7.539-8.914-7l-67.664,8.135c-4.394,0.528-7.528,4.519-7,8.914
		c0.489,4.07,3.948,7.058,7.947,7.058c0.32,0,0.642-0.019,0.967-0.059l67.664-8.135
		C213.721,207.085,216.856,203.093,216.328,198.699z"/>
	<path style={{fill: "#202020" }} d="M235.375,204.422c0.318,0,0.642-0.019,0.966-0.059l67.869-8.159c4.394-0.528,7.528-4.519,7-8.914
		c-0.529-4.395-4.517-7.547-8.914-7l-67.868,8.159c-4.395,0.528-7.529,4.519-7,8.914
		C227.917,201.434,231.375,204.422,235.375,204.422z"/>
	<path style={{fill: "#202020" }} d="M506.4,479.364l-36.278-36.281c-3.131-3.131-8.205-3.13-11.333-0.001
		c-3.131,3.13-3.131,8.204-0.001,11.333l36.281,36.284c0.788,0.785,0.905,1.705,0.905,2.183c0,0.479-0.116,1.4-0.907,2.188
		c-1.204,1.206-3.168,1.205-4.373,0.001l-89.377-89.379l10.735,1.986l28.569,28.57c3.13,3.131,8.204,3.13,11.333,0.001
		c3.131-3.13,3.131-8.204,0.001-11.333l-21.232-21.233c0.106-0.385,0.194-0.777,0.242-1.179
		c4.917-41.241-1.159-84.614-17.573-125.429c-0.138-0.343-0.305-0.667-0.483-0.981c-14.16-34.789-35.646-67.448-63.519-95.322
		c-52.89-52.889-123.413-83.222-193.487-83.222c-6.446,0-12.903,0.259-19.291,0.774c-1.065-30.56-9.084-62.75-23.393-93.671
		c-1.422-3.073-4.624-4.926-7.992-4.616c-3.371,0.303-6.189,2.694-7.039,5.97C95.043,18.133,87.85,33.293,77.26,50.222L34.928,7.893
		c-3.612-3.611-8.413-5.599-13.52-5.599c-5.107,0-9.909,1.989-13.519,5.599c-3.613,3.612-5.602,8.414-5.602,13.52
		s1.99,9.909,5.601,13.521l42.329,42.329C33.286,87.855,18.126,95.046,6.002,98.19c-3.277,0.849-5.667,3.667-5.97,7.039
		c-0.303,3.371,1.544,6.571,4.616,7.992c30.895,14.296,63.124,22.328,93.67,23.394c-6.106,75.725,24.322,154.65,82.449,212.779
		c27.813,27.812,60.505,49.377,95.439,63.586c0.279,0.153,0.565,0.296,0.867,0.418c31.748,12.765,64.478,19.238,97.278,19.238
		c2.466,0,4.961-0.038,7.416-0.113c2.338-0.071,4.525-1.159,5.994-2.979c1.467-1.821,2.067-4.191,1.641-6.489l-1.5-8.106
		l91.458,91.461c3.727,3.726,8.623,5.589,13.519,5.589c4.896,0,9.792-1.864,13.519-5.59c3.612-3.613,5.6-8.415,5.6-13.523
		S510.011,482.972,506.4,479.364z M365.785,416.441c-2-0.074-4.001-0.175-6-0.302c-0.068-0.004-0.138-0.01-0.206-0.014
		c-23.611-1.513-47.123-6.652-69.763-15.046c8.136-26.031,22.553-49.861,41.976-69.282c19.42-19.421,43.248-33.837,69.271-41.973
		c3.504,9.451,6.454,19.043,8.79,28.726c0.015,0.061,0.029,0.121,0.044,0.182c0.487,2.026,0.944,4.057,1.378,6.091
		c0.058,0.27,0.116,0.541,0.173,0.811c0.385,1.829,0.744,3.661,1.086,5.495c0.083,0.447,0.169,0.894,0.249,1.341
		c0.302,1.671,0.581,3.345,0.847,5.019c0.092,0.581,0.188,1.162,0.276,1.743c0.237,1.563,0.452,3.129,0.658,4.694
		c0.088,0.666,0.18,1.332,0.261,1.998c0.186,1.514,0.349,3.028,0.506,4.544c0.072,0.696,0.15,1.391,0.215,2.086
		c0.145,1.538,0.266,3.075,0.381,4.614c0.049,0.653,0.105,1.307,0.147,1.96c0.109,1.658,0.193,3.317,0.267,4.975
		c0.024,0.518,0.055,1.038,0.075,1.556c0.073,1.937,0.119,3.875,0.142,5.811c0.003,0.228,0.012,0.455,0.014,0.683
		c0.062,6.66-0.167,13.312-0.696,19.936l-37.011-6.85c-0.005-0.001-0.012-0.001-0.017-0.002l-1.737-0.322
		c-0.854-0.157-1.713-0.16-2.55-0.045c-1.234,0.17-2.413,0.625-3.446,1.337c-0.399,0.274-0.781,0.573-1.129,0.921
		c-0.858,0.858-1.484,1.889-1.876,3.001c-0.034,0.097-0.079,0.191-0.109,0.29c-0.021,0.068-0.032,0.139-0.051,0.208
		c-0.067,0.239-0.134,0.48-0.178,0.726c-0.001,0.007-0.001,0.015-0.003,0.022c-0.112,0.624-0.153,1.263-0.114,1.905
		c0.019,0.325,0.059,0.651,0.12,0.976l0.368,1.984l3.765,20.351c-2.031-0.021-4.064-0.069-6.096-0.145
		C365.8,416.441,365.793,416.441,365.785,416.441z M106.436,30.034c7.847,21.163,12.55,42.583,13.878,63.243L88.876,61.841
		C96.109,50.553,102.015,39.845,106.436,30.034z M18.314,21.413c0-0.478,0.118-1.398,0.906-2.186
		c0.789-0.788,1.709-0.906,2.187-0.906c0.479,0,1.399,0.118,2.186,0.906l49.343,49.341l0,0l83.155,83.155l-7.808,0.938
		L19.222,23.601C18.433,22.812,18.314,21.891,18.314,21.413z M61.834,88.883l25.151,25.149l6.286,6.286
		c-20.651-1.328-42.084-6.038-63.238-13.878C39.842,102.018,50.547,96.115,61.834,88.883z M114.06,141.107l15.092,15.092
		c-2.074,1.677-3.272,4.345-2.93,7.188c0.489,4.07,3.947,7.058,7.947,7.058c0.318,0,0.642-0.019,0.966-0.059L235.8,158.284
		c4.394-0.528,7.528-4.519,7-8.914c-0.529-4.394-4.513-7.539-8.914-7l-57.56,6.92l-35.226-35.226
		c4.91-0.324,9.858-0.486,14.798-0.486c65.854,0,132.247,28.622,182.153,78.528c24.425,24.425,43.65,52.706,56.973,82.84
		c-27.998,8.976-53.631,24.577-74.568,45.514c-20.939,20.938-36.541,46.576-45.517,74.58
		c-30.217-13.365-58.491-32.636-82.838-56.983C138.101,284.057,109.429,211.208,114.06,141.107z"/>
</g>
</svg>