<?xml version="1.0" encoding="iso-8859-1"?>
<!-- Uploaded to: SVG Repo, www.svgrepo.com, Generator: SVG Repo Mixer Tools -->
<svg height="800px" width="800px" version="1.1" id="Layer_1" xmlns="http://www.w3.org/2000/svg" xmlns:xlink="http://www.w3.org/1999/xlink" 
	 viewBox="0 0 512 512" xml:space="preserve">
<path style="fill:#FFC473;" d="M472.176,334.577c0,13.288,10.815,24.103,24.103,24.103h15.72v106.893H0V215.076h509.966
	c1.299,0,2.044-1.069,1.991-2.106h0.042v97.504h-15.72C482.991,310.474,472.176,321.289,472.176,334.577z"/>
<path style="fill:#FFB74D;" d="M472.176,334.577c0,13.288,10.815,24.103,24.103,24.103h15.72v106.893H255.245V215.076h254.721
	c1.299,0,2.044-1.069,1.991-2.106h0.042v97.504h-15.72C482.991,310.474,472.176,321.289,472.176,334.577z"/>
<path style="fill:#FF9A00;" d="M177.695,406.887c-26.042,0-47.159,21.117-47.159,47.159c0,3.982,0.493,7.839,1.425,11.528h91.467
	c0.933-3.689,1.425-7.545,1.425-11.528C224.854,428.004,203.737,406.887,177.695,406.887z"/>
<circle style="fill:#FF8900;" cx="322.525" cy="346.345" r="39.823"/>
<g>
	<path style="fill:#FF9A00;" d="M169.699,215.076h-81.47c-5.062,7.682-7.996,16.872-7.996,26.755
		c0,26.912,21.819,48.731,48.731,48.731s48.731-21.819,48.731-48.731C177.695,231.949,174.76,222.758,169.699,215.076z"/>
	<path style="fill:#FF9A00;" d="M509.966,215.076H0c0,0-0.493-157.333,148.949-168.651l106.265,48.406l255.58,116.43
		C512.753,212.153,512.114,215.076,509.966,215.076z"/>
</g>
<path style="fill:#E57500;" d="M291.096,111.17c-3.228,17.889-17.711,31.879-35.851,34.363c-1.897,0.262-3.846,0.398-5.816,0.398
	c-23.391,0-42.349-18.958-42.349-42.349c0-10.008,3.469-19.22,9.285-26.461l38.88,17.711L291.096,111.17z"/>
<path style="fill:#FF8900;" d="M509.997,215.076H255.245V94.832l255.58,116.43c0.735,0.334,1.105,0.954,1.165,1.598
	C512.093,213.934,511.34,215.076,509.997,215.076z"/>
<path style="fill:#C06100;" d="M291.096,111.17c-3.228,17.889-17.711,31.879-35.851,34.363V94.832L291.096,111.17z"/>
</svg>